<svg width="266" height="49" viewBox="0 0 266 49" fill="none" xmlns="http://www.w3.org/2000/svg">
<path d="M9.75 15.94C11.97 15.94 13.91 16.38 15.57 17.26C17.23 18.14 18.51 19.38 19.41 20.98C20.33 22.56 20.79 24.39 20.79 26.47C20.79 28.53 20.33 30.36 19.41 31.96C18.51 33.56 17.22 34.8 15.54 35.68C13.88 36.56 11.95 37 9.75 37H1.86V15.94H9.75ZM9.42 32.56C11.36 32.56 12.87 32.03 13.95 30.97C15.03 29.91 15.57 28.41 15.57 26.47C15.57 24.53 15.03 23.02 13.95 21.94C12.87 20.86 11.36 20.32 9.42 20.32H6.99V32.56H9.42ZM39.9743 37.21C37.9943 37.21 36.1743 36.75 34.5143 35.83C32.8743 34.91 31.5643 33.63 30.5843 31.99C29.6243 30.33 29.1443 28.47 29.1443 26.41C29.1443 24.35 29.6243 22.5 30.5843 20.86C31.5643 19.22 32.8743 17.94 34.5143 17.02C36.1743 16.1 37.9943 15.64 39.9743 15.64C41.9543 15.64 43.7643 16.1 45.4043 17.02C47.0643 17.94 48.3643 19.22 49.3043 20.86C50.2643 22.5 50.7443 24.35 50.7443 26.41C50.7443 28.47 50.2643 30.33 49.3043 31.99C48.3443 33.63 47.0443 34.91 45.4043 35.83C43.7643 36.75 41.9543 37.21 39.9743 37.21ZM39.9743 32.53C41.6543 32.53 42.9943 31.97 43.9943 30.85C45.0143 29.73 45.5243 28.25 45.5243 26.41C45.5243 24.55 45.0143 23.07 43.9943 21.97C42.9943 20.85 41.6543 20.29 39.9743 20.29C38.2743 20.29 36.9143 20.84 35.8943 21.94C34.8943 23.04 34.3943 24.53 34.3943 26.41C34.3943 28.27 34.8943 29.76 35.8943 30.88C36.9143 31.98 38.2743 32.53 39.9743 32.53ZM67.5757 37.21C66.0357 37.21 64.6557 36.96 63.4357 36.46C62.2157 35.96 61.2357 35.22 60.4957 34.24C59.7757 33.26 59.3957 32.08 59.3557 30.7H64.8157C64.8957 31.48 65.1657 32.08 65.6257 32.5C66.0857 32.9 66.6857 33.1 67.4257 33.1C68.1857 33.1 68.7857 32.93 69.2257 32.59C69.6657 32.23 69.8857 31.74 69.8857 31.12C69.8857 30.6 69.7057 30.17 69.3457 29.83C69.0057 29.49 68.5757 29.21 68.0557 28.99C67.5557 28.77 66.8357 28.52 65.8957 28.24C64.5357 27.82 63.4257 27.4 62.5657 26.98C61.7057 26.56 60.9657 25.94 60.3457 25.12C59.7257 24.3 59.4157 23.23 59.4157 21.91C59.4157 19.95 60.1257 18.42 61.5457 17.32C62.9657 16.2 64.8157 15.64 67.0957 15.64C69.4157 15.64 71.2857 16.2 72.7057 17.32C74.1257 18.42 74.8857 19.96 74.9857 21.94H69.4357C69.3957 21.26 69.1457 20.73 68.6857 20.35C68.2257 19.95 67.6357 19.75 66.9157 19.75C66.2957 19.75 65.7957 19.92 65.4157 20.26C65.0357 20.58 64.8457 21.05 64.8457 21.67C64.8457 22.35 65.1657 22.88 65.8057 23.26C66.4457 23.64 67.4457 24.05 68.8057 24.49C70.1657 24.95 71.2657 25.39 72.1057 25.81C72.9657 26.23 73.7057 26.84 74.3257 27.64C74.9457 28.44 75.2557 29.47 75.2557 30.73C75.2557 31.93 74.9457 33.02 74.3257 34C73.7257 34.98 72.8457 35.76 71.6857 36.34C70.5257 36.92 69.1557 37.21 67.5757 37.21ZM89.9002 20.05V24.31H96.7702V28.27H89.9002V32.89H97.6702V37H84.7702V15.94H97.6702V20.05H89.9002Z" fill="#E24E6A"/>
<path d="M106.488 26.44C106.488 24.36 106.938 22.51 107.838 20.89C108.738 19.25 109.988 17.98 111.588 17.08C113.208 16.16 115.038 15.7 117.078 15.7C119.578 15.7 121.718 16.36 123.498 17.68C125.278 19 126.468 20.8 127.068 23.08H121.428C121.008 22.2 120.408 21.53 119.628 21.07C118.868 20.61 117.998 20.38 117.018 20.38C115.438 20.38 114.158 20.93 113.178 22.03C112.198 23.13 111.708 24.6 111.708 26.44C111.708 28.28 112.198 29.75 113.178 30.85C114.158 31.95 115.438 32.5 117.018 32.5C117.998 32.5 118.868 32.27 119.628 31.81C120.408 31.35 121.008 30.68 121.428 29.8H127.068C126.468 32.08 125.278 33.88 123.498 35.2C121.718 36.5 119.578 37.15 117.078 37.15C115.038 37.15 113.208 36.7 111.588 35.8C109.988 34.88 108.738 33.61 107.838 31.99C106.938 30.37 106.488 28.52 106.488 26.44ZM141.697 20.05V24.31H148.567V28.27H141.697V32.89H149.467V37H136.567V15.94H149.467V20.05H141.697ZM169.895 37L165.515 29.05H164.285V37H159.155V15.94H167.765C169.425 15.94 170.835 16.23 171.995 16.81C173.175 17.39 174.055 18.19 174.635 19.21C175.215 20.21 175.505 21.33 175.505 22.57C175.505 23.97 175.105 25.22 174.305 26.32C173.525 27.42 172.365 28.2 170.825 28.66L175.685 37H169.895ZM164.285 25.42H167.465C168.405 25.42 169.105 25.19 169.565 24.73C170.045 24.27 170.285 23.62 170.285 22.78C170.285 21.98 170.045 21.35 169.565 20.89C169.105 20.43 168.405 20.2 167.465 20.2H164.285V25.42ZM200.233 15.94V20.05H194.653V37H189.523V20.05H183.943V15.94H200.233ZM215.917 33.28H208.057L206.797 37H201.427L209.047 15.94H214.987L222.607 37H217.177L215.917 33.28ZM214.597 29.32L211.987 21.61L209.407 29.32H214.597Z" fill="#0D114F"/>
<path d="M236.547 41.3101C232.485 39.0995 231.096 34.078 233.445 30.0944L245.793 9.15226C248.142 5.16864 253.339 3.73135 257.401 5.94197C261.463 8.1526 262.851 13.174 260.502 17.1576L248.154 38.0998C245.806 42.0834 240.609 43.5207 236.547 41.3101Z" fill="url(#paint0_linear_20_204)" stroke="#FFFBFB"/>
<line opacity="0.9" y1="-1" x2="21.8514" y2="-1" transform="matrix(0.485437 -0.874272 0.889779 0.456392 245.984 36.4725)" stroke="white" stroke-width="2"/>
<defs>
<linearGradient id="paint0_linear_20_204" x1="275.615" y1="-13.5874" x2="257.47" y2="29.0187" gradientUnits="userSpaceOnUse">
<stop offset="0.974989" stop-color="#E24E6A"/>
<stop offset="1" stop-color="#3695D7"/>
</linearGradient>
</defs>
</svg>
